<svg width="456" height="385" viewBox="0 0 456 385" fill="none" xmlns="http://www.w3.org/2000/svg">
<path d="M399.15 257.527L389.47 255.015C381.079 287.355 359.052 314.508 329.035 329.513L333.507 338.458C366.109 322.162 390.035 292.663 399.15 257.527Z" fill="#011F61"/>
<path d="M424.074 374.592H11.773V384.592H424.074V374.592Z" fill="#011F61"/>
<path d="M33.349 205.521C33.959 202.366 34.55 199.408 35.124 196.611L62.75 206.775L66.203 197.39L37.232 186.731C41.08 169.454 44.066 160.223 46.556 153.462C49.303 145.991 54.797 140.037 62.027 136.697C69.257 133.357 77.353 133.033 84.828 135.785C92.302 138.532 98.257 144.026 101.597 151.256C104.936 158.485 105.262 166.582 102.515 174.053C102.161 175.014 101.64 176.289 100.972 177.834L76.685 168.898L73.232 178.283L96.798 186.954C93.118 194.706 88.065 204.815 82.32 215.707H16.028V225.983C16.028 228.772 16.111 231.594 16.275 234.37C19.561 290.227 55.354 336.964 104.591 356.641H11.773V366.641H156.687H279.16H424.074V356.641H331.242C383.093 335.9 419.818 285.153 419.818 225.983V225.18C426.205 224.157 432.259 221.662 437.589 217.821C446.671 211.274 452.661 201.585 454.458 190.536C456.257 179.484 453.642 168.396 447.097 159.317C442.454 152.873 436.126 148.019 429.007 145.091C431.523 141.493 433.123 137.265 433.524 132.852C433.75 130.412 433.617 127.939 433.127 125.492C430.339 111.783 416.916 102.891 403.202 105.676C400.831 106.158 398.57 106.967 396.473 108.065C396.435 107.823 396.409 107.581 396.368 107.338C394.077 93.934 386.705 82.223 375.607 74.364C352.698 58.14 320.862 63.579 304.637 86.488C302.03 90.17 299.971 94.139 298.454 98.274C275.836 92.776 252.632 106.094 246.149 128.664C243.328 138.474 244.036 149.013 248.142 158.339L257.294 154.31C254.128 147.121 253.583 138.994 255.759 131.427C258.244 122.776 263.949 115.61 271.823 111.25C279.239 107.146 287.742 105.994 295.938 107.948C294.182 119.101 296.111 130.769 301.828 140.922L310.542 136.016C302.813 122.289 303.698 105.118 312.798 92.268C319.112 83.351 328.523 77.426 339.294 75.586C350.064 73.746 360.908 76.21 369.826 82.526C378.743 88.841 384.669 98.251 386.509 109.022C388.349 119.793 385.884 130.637 379.569 139.554L387.73 145.333C393.072 137.791 396.193 129.141 396.929 120.166C399.113 117.778 401.982 116.129 405.193 115.476C413.506 113.791 421.637 119.177 423.324 127.472C423.622 128.956 423.703 130.456 423.566 131.939C423.205 135.926 421.234 139.664 418.207 142.252C414.019 141.724 409.727 141.801 405.465 142.584L407.271 152.42C419.362 150.198 431.809 155.201 438.985 165.163C449.27 179.432 446.022 199.415 431.743 209.709C426.41 213.552 420.126 215.623 413.565 215.706H358.616C373.617 193.807 386.27 192.65 386.409 192.641L386.307 192.645L386.024 182.649C383.985 182.707 365.955 184.15 346.723 215.706H344.23C344.407 214.088 344.522 212.457 344.548 210.816C344.768 196.57 339.387 183.136 329.397 172.99C319.404 162.841 306.059 157.252 291.819 157.252C282.917 157.252 274.106 159.515 266.335 163.8C264.048 165.067 261.632 166.264 259.158 167.356C246.454 172.956 233.034 175.211 220.348 173.873C219.298 173.763 218.227 173.711 217.148 173.694C205.482 163.944 192.275 155.569 182.023 149.653C181.816 138.475 182.804 127.208 184.979 116.148L186.152 110.183H180.073C177.268 110.183 170.101 110.826 164.148 116.779C163.58 117.348 163.051 117.945 162.552 118.561C162.053 117.945 161.524 117.348 160.956 116.779C155.002 110.825 147.836 110.183 145.031 110.183H138.952L140.124 116.147C142.299 127.208 143.286 138.474 143.08 149.647C134.571 154.555 124.028 161.153 114.027 168.826C114.985 161.464 113.866 153.966 110.676 147.061C108.414 142.165 105.252 137.869 101.385 134.341C103.599 132.906 105.724 131.223 107.591 129.648C114.778 123.581 123.114 114.65 131.064 104.501C139.013 94.355 145.686 84.124 149.854 75.693C153.303 68.716 157.227 58.92 151.496 54.425C146.828 50.768 139.105 53.821 128.466 63.493C128.613 62.139 128.728 60.816 128.8 59.538C129.639 44.6 124.89 39.652 120.758 38.132C113.451 35.444 105.287 42.284 98.035 53.127C96.25 38.297 92.311 30.671 86.265 30.425C79.041 30.134 75.63 40.136 73.735 47.685C71.444 56.807 69.895 68.922 69.372 81.8C68.848 94.682 69.407 106.887 70.948 116.165C71.359 118.641 71.903 121.382 72.695 123.972C67.62 124.207 62.587 125.422 57.835 127.617C48.179 132.077 40.841 140.03 37.173 150.006C33.765 159.259 29.479 172.866 23.531 203.62L33.349 205.521ZM107.655 187.35C111.389 183.787 115.482 180.347 119.713 177.09C113.192 187.848 108.691 200.375 108.691 213.66C108.691 214.344 108.716 215.025 108.73 215.708H93.612C99.463 204.466 104.326 194.557 107.655 187.35ZM181.648 199.936H163.343V209.936H180.214C180.21 211.882 180.351 213.81 180.652 215.708H146.959C146.952 215.025 146.941 214.344 146.941 213.66C146.941 190.546 153.3 171.258 158.446 160.514V161.954H158.456L158.455 160.496C160.04 157.188 161.512 154.681 162.644 153.137C165.707 157.154 171.314 168.06 175.004 184.829L184.771 182.681C182.832 173.866 180.07 165.35 176.885 158.265C184.827 162.846 194.617 168.947 203.898 175.948C196.44 178.731 189.977 183.955 185.645 190.951C183.899 193.759 182.564 196.787 181.648 199.936ZM118.73 215.708C118.714 215.025 118.691 214.345 118.691 213.66C118.691 193.867 130.509 177.668 137.554 169.774C140.987 165.927 144.386 162.758 147.538 160.207C146.904 161.712 146.308 163.217 145.756 164.683C142.464 173.427 136.942 191.417 136.942 213.66C136.942 214.344 136.953 215.025 136.96 215.708H118.73ZM409.818 225.984C409.818 298.03 351.205 356.642 279.16 356.642H156.687C87.602 356.642 30.311 302.676 26.258 233.783C26.106 231.202 26.029 228.578 26.029 225.984V225.708H409.819V225.984H409.818ZM267.379 209.983C267.379 196.426 278.412 185.398 291.975 185.398C305.532 185.398 316.561 196.427 316.561 209.983C316.561 211.93 316.31 213.841 315.864 215.708H268.079C267.63 213.846 267.379 211.935 267.379 209.983ZM263.193 176.508C265.943 175.294 268.631 173.962 271.171 172.554C277.46 169.087 284.6 167.254 291.818 167.254C303.357 167.254 314.172 171.784 322.271 180.008C330.367 188.23 334.727 199.117 334.548 210.66C334.521 212.358 334.383 214.045 334.159 215.708H326.079C326.392 213.826 326.559 211.916 326.559 209.983C326.559 190.913 311.043 175.398 291.973 175.398C272.897 175.398 257.377 190.913 257.377 209.983C257.377 211.918 257.544 213.828 257.858 215.708H190.829C190.358 213.592 190.148 211.416 190.214 209.206C190.35 204.625 191.706 200.139 194.14 196.223C198.739 188.795 206.614 184.117 215.205 183.709C216.594 183.643 217.97 183.681 219.296 183.821C233.719 185.338 248.895 182.811 263.193 176.508ZM171.218 123.853C172.062 123.009 172.957 122.358 173.845 121.856C172.741 129.24 172.132 136.685 172.013 144.113C170.234 143.171 168.73 142.396 167.551 141.799V132.707C167.551 129.362 168.853 126.218 171.218 123.853ZM151.256 121.856C152.144 122.358 153.039 123.009 153.883 123.853C156.248 126.218 157.55 129.362 157.55 132.707V141.798C156.371 142.394 154.862 143.172 153.088 144.111C152.97 136.684 152.361 129.24 151.256 121.856ZM143.836 64.219C141.968 70.101 135.649 82.434 123.191 98.337C120.131 102.243 117.194 105.733 114.423 108.831C116.848 103.978 119.061 98.821 120.965 93.646C122.486 89.515 123.791 85.406 124.899 81.389C133.658 71.672 140.161 66.453 143.836 64.219ZM117.295 47.546C119.414 49.566 120.798 65.143 111.582 90.192C102.364 115.243 91.213 126.208 88.291 126.372C86.172 124.352 84.787 108.775 94.004 83.725C103.222 58.674 114.373 47.71 117.295 47.546ZM79.364 82.209C80.183 62.025 83.366 48.538 85.755 42.848C87.145 47.048 88.77 55.577 89.079 69.318L89.134 69.317C87.495 72.89 85.979 76.577 84.619 80.272C82.485 86.072 80.659 92.109 79.302 97.982C79.133 93.28 79.127 88.017 79.364 82.209Z" fill="#011F61"/>
<path d="M51.036 170.115L64.2463 174.975L67.6993 165.59L54.489 160.73L51.036 170.115Z" fill="#011F61"/>
<path d="M422.381 198.348C418.777 200.943 414.379 201.978 409.994 201.267L408.39 211.137C409.836 211.372 411.284 211.489 412.72 211.489C418.258 211.489 423.643 209.762 428.225 206.464C433.996 202.308 437.803 196.152 438.946 189.132C440.087 182.112 438.426 175.068 434.271 169.297L426.156 175.141C428.752 178.745 429.788 183.144 429.075 187.527C428.361 191.909 425.984 195.752 422.381 198.348Z" fill="#011F61"/>
<path d="M336.225 102.188L338.989 92.577C327.527 89.284 315.517 95.927 312.221 107.39C308.926 118.854 315.572 130.861 327.035 134.157L329.797 124.546C323.633 122.774 320.061 116.317 321.832 110.153C323.604 103.989 330.061 100.416 336.225 102.188Z" fill="#011F61"/>
<path d="M161.816 35.758H171.816V23.37H184.205V13.37H171.816V0.981003H161.816V13.37H149.428V23.37H161.816V35.758Z" fill="#011F61"/>
<path d="M278.871 80.48H288.871V68.092H301.26V58.092H288.871V45.703H278.871V58.092H266.482V68.092H278.871V80.48Z" fill="#011F61"/>
<path d="M13.376 122.861H23.376V110.473H35.765V100.473H23.376V88.084H13.376V100.473H0.987V110.473H13.376V122.861Z" fill="#011F61"/>
</svg>
