<svg width="128" height="128" viewBox="0 0 128 128" fill="none" xmlns="http://www.w3.org/2000/svg">
<g clip-path="url(#clip0_1_2)">
<path d="M64 128C99.3462 128 128 99.3462 128 64C128 28.6538 99.3462 0 64 0C28.6538 0 0 28.6538 0 64C0 99.3462 28.6538 128 64 128Z" fill="#011F61"/>
<path d="M103 29H25C24.4 29 24 29.4 24 30V42C24 42.6 24.4 43 25 43H103C103.6 43 104 42.6 104 42V30C104 29.4 103.6 29 103 29Z" fill="#F79502"/>
<path d="M103 57H25C24.4 57 24 57.4 24 58V70C24 70.6 24.4 71 25 71H103C103.6 71 104 70.6 104 70V58C104 57.4 103.6 57 103 57Z" fill="#F79502"/>
<path d="M103 85H25C24.4 85 24 85.4 24 86V98C24 98.6 24.4 99 25 99H103C103.6 99 104 98.6 104 98V86C104 85.4 103.6 85 103 85Z" fill="#F79502"/>
</g>
<defs>
<clipPath id="clip0_1_2">
<rect width="128" height="128" fill="white"/>
</clipPath>
</defs>
</svg>
